<svg xmlns="http://www.w3.org/2000/svg" width="20" height="14" viewBox="0 0 20 14">
  <defs>
    <style>
      .cls-1 {
        fill: #fff;
      }
    </style>
  </defs>
  <path id="パス_39" data-name="パス 39" class="cls-1" d="M104.132,87.225a2.505,2.505,0,0,0-1.768-1.768c-1.56-.418-7.814-.418-7.814-.418s-6.254,0-7.814.418a2.5,2.5,0,0,0-1.768,1.768,27.941,27.941,0,0,0,0,9.628,2.5,2.5,0,0,0,1.768,1.768c1.56.418,7.814.418,7.814.418s6.254,0,7.814-.418a2.5,2.5,0,0,0,1.768-1.768,27.941,27.941,0,0,0,0-9.628ZM92.55,95.039v-6l5.2,3Z" transform="translate(-84.55 -85.039)"/>
</svg>
